<svg width="1200" height="760" viewBox="0 0 1200 760" fill="none" xmlns="http://www.w3.org/2000/svg">
  <rect width="1200" height="760" fill="#0F172A"/>
  <rect x="44" y="44" width="1112" height="672" rx="28" fill="#1E293B"/>
  <rect x="104" y="104" width="580" height="552" rx="22" fill="#334155"/>
  <rect x="142" y="146" width="504" height="56" rx="12" fill="#64748B"/>
  <rect x="142" y="224" width="504" height="112" rx="16" fill="#475569"/>
  <rect x="142" y="354" width="504" height="112" rx="16" fill="#475569"/>
  <rect x="142" y="484" width="504" height="112" rx="16" fill="#475569"/>
  <rect x="726" y="104" width="370" height="260" rx="22" fill="#334155"/>
  <circle cx="830" cy="194" r="58" fill="#64748B"/>
  <rect x="772" y="262" width="116" height="72" rx="18" fill="#64748B"/>
  <rect x="920" y="152" width="142" height="20" rx="10" fill="#94A3B8"/>
  <rect x="920" y="186" width="110" height="18" rx="9" fill="#64748B"/>
  <rect x="920" y="216" width="124" height="18" rx="9" fill="#64748B"/>
  <rect x="726" y="394" width="370" height="262" rx="22" fill="#334155"/>
  <rect x="762" y="430" width="296" height="22" rx="11" fill="#94A3B8"/>
  <rect x="762" y="468" width="208" height="18" rx="9" fill="#64748B"/>
  <rect x="762" y="498" width="240" height="18" rx="9" fill="#64748B"/>
  <rect x="762" y="540" width="170" height="78" rx="14" fill="#475569"/>
</svg>
