<svg width="1200" height="760" viewBox="0 0 1200 760" fill="none" xmlns="http://www.w3.org/2000/svg">
  <rect width="1200" height="760" fill="#111827"/>
  <rect x="48" y="48" width="1104" height="664" rx="28" fill="#1F2937"/>
  <rect x="114" y="114" width="396" height="536" rx="24" fill="#374151"/>
  <rect x="150" y="156" width="324" height="180" rx="18" fill="#4B5563"/>
  <circle cx="242" cy="246" r="42" fill="#9CA3AF"/>
  <rect x="150" y="370" width="324" height="18" rx="9" fill="#9CA3AF"/>
  <rect x="150" y="402" width="236" height="16" rx="8" fill="#6B7280"/>
  <rect x="150" y="432" width="282" height="16" rx="8" fill="#6B7280"/>
  <rect x="150" y="474" width="156" height="56" rx="12" fill="#6B7280"/>
  <rect x="540" y="114" width="546" height="254" rx="24" fill="#374151"/>
  <rect x="574" y="146" width="478" height="28" rx="14" fill="#9CA3AF"/>
  <rect x="574" y="196" width="182" height="140" rx="16" fill="#6B7280"/>
  <rect x="782" y="196" width="270" height="64" rx="12" fill="#6B7280"/>
  <rect x="782" y="274" width="216" height="20" rx="10" fill="#4B5563"/>
  <rect x="782" y="306" width="168" height="20" rx="10" fill="#4B5563"/>
  <rect x="540" y="396" width="546" height="254" rx="24" fill="#374151"/>
  <rect x="574" y="432" width="222" height="182" rx="16" fill="#4B5563"/>
  <rect x="824" y="432" width="228" height="22" rx="11" fill="#9CA3AF"/>
  <rect x="824" y="466" width="188" height="18" rx="9" fill="#6B7280"/>
  <rect x="824" y="496" width="214" height="18" rx="9" fill="#6B7280"/>
  <rect x="824" y="536" width="160" height="52" rx="12" fill="#6B7280"/>
</svg>
