<svg width="1200" height="760" viewBox="0 0 1200 760" fill="none" xmlns="http://www.w3.org/2000/svg">
  <rect width="1200" height="760" fill="#0F172A"/>
  <rect x="48" y="48" width="1104" height="664" rx="28" fill="#1E293B"/>
  <circle cx="240" cy="226" r="66" fill="#334155"/>
  <rect x="172" y="304" width="136" height="178" rx="22" fill="#475569"/>
  <rect x="468" y="194" width="330" height="236" rx="22" fill="#334155"/>
  <rect x="500" y="228" width="266" height="58" rx="12" fill="#64748B"/>
  <rect x="500" y="304" width="188" height="18" rx="9" fill="#94A3B8"/>
  <rect x="500" y="332" width="156" height="18" rx="9" fill="#94A3B8"/>
  <rect x="860" y="246" width="182" height="144" rx="18" fill="#475569"/>
  <circle cx="951" cy="318" r="42" fill="#CBD5E1"/>
  <circle cx="952" cy="319" r="26" fill="#334155"/>
  <rect x="860" y="486" width="182" height="116" rx="18" fill="#334155"/>
  <rect x="124" y="534" width="612" height="120" rx="18" fill="#334155"/>
  <rect x="160" y="572" width="210" height="16" rx="8" fill="#94A3B8"/>
  <rect x="160" y="602" width="160" height="16" rx="8" fill="#64748B"/>
  <rect x="388" y="572" width="160" height="16" rx="8" fill="#64748B"/>
  <rect x="388" y="602" width="112" height="16" rx="8" fill="#475569"/>
</svg>
