<svg width="1200" height="760" viewBox="0 0 1200 760" fill="none" xmlns="http://www.w3.org/2000/svg">
  <rect width="1200" height="760" fill="#0B1324"/>
  <rect x="44" y="44" width="1112" height="672" rx="28" fill="#1E293B"/>
  <rect x="110" y="118" width="540" height="306" rx="22" fill="#334155"/>
  <rect x="146" y="154" width="468" height="198" rx="14" fill="#475569"/>
  <rect x="696" y="118" width="394" height="306" rx="22" fill="#334155"/>
  <circle cx="806" cy="228" r="62" fill="#64748B"/>
  <rect x="744" y="296" width="126" height="94" rx="20" fill="#64748B"/>
  <circle cx="982" cy="228" r="62" fill="#94A3B8"/>
  <rect x="920" y="296" width="126" height="94" rx="20" fill="#94A3B8"/>
  <rect x="110" y="464" width="980" height="204" rx="24" fill="#334155"/>
  <rect x="150" y="510" width="232" height="18" rx="9" fill="#94A3B8"/>
  <rect x="150" y="542" width="172" height="18" rx="9" fill="#64748B"/>
  <rect x="150" y="574" width="260" height="18" rx="9" fill="#64748B"/>
  <rect x="444" y="510" width="202" height="82" rx="14" fill="#475569"/>
  <rect x="680" y="510" width="370" height="24" rx="12" fill="#64748B"/>
  <rect x="680" y="548" width="286" height="18" rx="9" fill="#475569"/>
  <rect x="680" y="578" width="212" height="18" rx="9" fill="#475569"/>
</svg>
